<?xml version="1.0" encoding="utf-8"?>
<!-- Generator: Adobe Illustrator 16.0.0, SVG Export Plug-In . SVG Version: 6.00 Build 0)  -->
<!DOCTYPE svg PUBLIC "-//W3C//DTD SVG 1.1//EN" "http://www.w3.org/Graphics/SVG/1.1/DTD/svg11.dtd">
<svg version="1.1" id="Layer_1" xmlns="http://www.w3.org/2000/svg" xmlns:xlink="http://www.w3.org/1999/xlink" x="0px" y="0px"
     width="800px" height="600px" viewBox="0 0 800 600" enable-background="new 0 0 800 600" xml:space="preserve">
<g>
	<path fill="#C0C7CB" d="M238,163c13.807,0,25-11.193,25-25s-11.193-25-25-25s-25,11.193-25,25S224.193,163,238,163"/>
	<path fill="#1D1D1B" d="M240.947,129.055h-3.349l-6.209,4.944l1.964,2.452l2.215-1.78c0.264-0.211,0.734-0.654,1.411-1.331
		l-0.066,2.004l-0.04,1.832v11.153h4.074V129.055z"/>
</g>
<g>
	<path fill="#C0C7CB" d="M292,163c13.807,0,25-11.193,25-25s-11.193-25-25-25s-25,11.193-25,25S278.193,163,292,163"/>
	<path fill="#1D1D1B" d="M298.349,144.901h-8.398v-0.185l2.479-2.333c1.652-1.512,2.805-2.676,3.46-3.494
		c0.655-0.817,1.138-1.615,1.45-2.393c0.312-0.777,0.468-1.61,0.468-2.498c0-1.019-0.255-1.925-0.764-2.716
		c-0.51-0.791-1.226-1.406-2.149-1.845c-0.923-0.44-1.986-0.66-3.191-0.66c-0.914,0-1.74,0.091-2.478,0.271
		c-0.738,0.18-1.42,0.437-2.044,0.771c-0.624,0.334-1.41,0.905-2.359,1.714l2.214,2.623c0.765-0.632,1.499-1.12,2.202-1.463
		c0.703-0.343,1.428-0.514,2.175-0.514c0.712,0,1.281,0.189,1.708,0.567c0.426,0.378,0.639,0.953,0.639,1.727
		c0,0.518-0.097,1.019-0.29,1.503c-0.193,0.483-0.51,1.008-0.949,1.575c-0.44,0.567-1.376,1.584-2.808,3.052l-4.839,4.891v2.835
		h13.474V144.901z"/>
</g>
<g>
	<path fill="#C0C7CB" d="M346,163c13.807,0,25-11.193,25-25s-11.193-25-25-25s-25,11.193-25,25S332.193,163,346,163"/>
	<path fill="#1D1D1B" d="M349.864,129.991c-1.156-0.809-2.731-1.213-4.726-1.213c-2.435,0-4.531,0.633-6.289,1.899l1.885,2.808
		c0.8-0.519,1.527-0.884,2.182-1.095c0.655-0.211,1.299-0.316,1.932-0.316c1.828,0,2.742,0.73,2.742,2.188
		c0,0.95-0.345,1.62-1.035,2.011s-1.782,0.587-3.276,0.587h-1.49v3.124h1.463c1.617,0,2.795,0.189,3.534,0.567
		c0.738,0.378,1.107,1.02,1.107,1.925c0,1.011-0.321,1.745-0.962,2.202c-0.642,0.457-1.635,0.685-2.98,0.685
		c-0.879,0-1.766-0.119-2.663-0.356c-0.896-0.237-1.718-0.545-2.465-0.923v3.468c1.617,0.694,3.471,1.041,5.563,1.041
		c2.496,0,4.417-0.516,5.761-1.549c1.345-1.033,2.018-2.476,2.018-4.331c0-1.274-0.401-2.287-1.2-3.039
		c-0.8-0.751-1.978-1.223-3.533-1.417v-0.079c1.318-0.316,2.342-0.896,3.071-1.74c0.73-0.844,1.095-1.868,1.095-3.072
		C351.598,131.925,351.02,130.8,349.864,129.991"/>
</g>
<g>
	<path fill="#C0C7CB" d="M400,163c13.807,0,25-11.193,25-25s-11.193-25-25-25c-13.807,0-25,11.193-25,25S386.193,163,400,163"/>
	<path fill="#1D1D1B" d="M395.842,141.171l3.533-5.339c0.457-0.686,0.848-1.389,1.173-2.11h0.106
		c-0.027,0.167-0.062,0.769-0.106,1.806c-0.044,1.038-0.066,1.829-0.066,2.373v3.27H395.842z M406.783,141.171h-2.319v-12.116
		h-3.758l-8.45,12.446v2.834h8.226v3.995h3.982v-3.995h2.319V141.171z"/>
</g>
<g>
	<path fill="#C0C7CB" d="M454,163c13.807,0,25-11.193,25-25s-11.193-25-25-25s-25,11.193-25,25S440.193,163,454,163"/>
	<path fill="#1D1D1B" d="M451.898,136.2l-0.461,0.092l0.355-3.783h6.881v-3.455h-10.453l-0.726,9.822l1.621,0.87
		c0.353-0.105,0.81-0.204,1.371-0.296c0.563-0.093,1.077-0.139,1.543-0.139c2.575,0,3.862,0.972,3.862,2.914
		c0,2.039-1.243,3.058-3.73,3.058c-0.827,0-1.701-0.116-2.624-0.349c-0.923-0.233-1.731-0.534-2.426-0.903v3.52
		c1.319,0.694,3.05,1.042,5.194,1.042c2.47,0,4.369-0.58,5.695-1.741c1.327-1.16,1.991-2.816,1.991-4.97
		c0-1.819-0.552-3.252-1.655-4.298c-1.103-1.046-2.586-1.569-4.449-1.569C453.098,136.016,452.434,136.078,451.898,136.2"/>
</g>
<g>
	<path fill="#C0C7CB" d="M508,163c13.807,0,25-11.193,25-25s-11.193-25-25-25s-25,11.193-25,25S494.193,163,508,163"/>
	<path fill="#1D1D1B" d="M505.615,144.256c-0.551-0.721-0.824-1.604-0.824-2.65c0-0.712,0.292-1.336,0.877-1.872
		c0.584-0.536,1.289-0.805,2.115-0.805c0.879,0,1.535,0.271,1.971,0.811c0.436,0.541,0.652,1.281,0.652,2.222
		c0,1.081-0.232,1.914-0.698,2.498c-0.466,0.585-1.134,0.877-2.004,0.877C506.861,145.337,506.164,144.976,505.615,144.256
		 M501.607,144.717c0.576,1.266,1.393,2.228,2.451,2.887s2.301,0.989,3.725,0.989c2.057,0,3.666-0.6,4.826-1.8
		c1.16-1.199,1.739-2.827,1.739-4.884c0-1.907-0.487-3.401-1.463-4.483c-0.976-1.081-2.325-1.621-4.048-1.621
		c-1.916,0-3.309,0.747-4.18,2.241h-0.17c0.078-1.52,0.338-2.694,0.776-3.52c0.44-0.826,1.101-1.45,1.985-1.872
		c0.883-0.422,2.023-0.633,3.421-0.633c0.765,0,1.538,0.088,2.319,0.264v-3.256c-0.623-0.132-1.484-0.198-2.584-0.198
		c-3.217,0-5.631,0.931-7.243,2.795c-1.613,1.863-2.421,4.702-2.421,8.516C500.742,141.927,501.031,143.451,501.607,144.717"/>
</g>
<g>
	<path fill="#C0C7CB" d="M562,163c13.807,0,25-11.193,25-25s-11.193-25-25-25s-25,11.193-25,25S548.193,163,562,163"/>
	<polygon fill="#1D1D1B" points="561.059,148.329 568.35,131.639 568.35,129.082 554.52,129.082 554.52,132.509 564.024,132.509 
		556.787,148.329 	"/>
</g>
<g>
	<path fill="#35A044" d="M238,217c13.807,0,25-11.193,25-25c0-13.807-11.193-25-25-25s-25,11.193-25,25
		C213,205.807,224.193,217,238,217"/>
	<path fill="#1D1D1B" d="M239.181,186.312c0.44,0.352,0.66,0.831,0.66,1.437c0,0.555-0.172,1.042-0.515,1.463
		c-0.342,0.423-0.944,0.836-1.806,1.24c-0.888-0.439-1.501-0.868-1.839-1.286c-0.338-0.417-0.507-0.89-0.507-1.417
		c0-0.598,0.213-1.074,0.639-1.43s0.986-0.534,1.681-0.534C238.179,185.784,238.742,185.96,239.181,186.312 M237.321,193.932
		c1.117,0.58,1.923,1.127,2.42,1.642c0.496,0.514,0.745,1.065,0.745,1.654c0,0.712-0.251,1.285-0.752,1.721
		s-1.257,0.652-2.267,0.652c-0.915,0-1.635-0.211-2.163-0.633c-0.527-0.423-0.791-1.011-0.791-1.767
		C234.514,195.883,235.45,194.793,237.321,193.932 M233.05,184.083c-1.143,0.853-1.714,1.969-1.714,3.349
		c0,0.939,0.242,1.806,0.725,2.597s1.275,1.534,2.373,2.229c-1.292,0.649-2.23,1.401-2.814,2.254
		c-0.585,0.853-0.877,1.827-0.877,2.927c0,1.644,0.602,2.914,1.806,3.81c1.204,0.897,2.861,1.346,4.97,1.346
		c2.022,0,3.652-0.481,4.891-1.444c1.24-0.962,1.859-2.234,1.859-3.816c0-1.002-0.314-1.923-0.942-2.762
		c-0.629-0.84-1.664-1.646-3.105-2.42c1.213-0.606,2.092-1.294,2.637-2.063c0.544-0.769,0.817-1.646,0.817-2.63
		c0-1.424-0.565-2.555-1.694-3.395c-1.13-0.839-2.617-1.259-4.463-1.259C235.683,182.804,234.192,183.231,233.05,184.083"/>
</g>
<g>
	<path fill="#35A044" d="M292,217c13.807,0,25-11.193,25-25c0-13.807-11.193-25-25-25s-25,11.193-25,25
		C267,205.807,278.193,217,292,217"/>
	<path fill="#1D1D1B" d="M293.399,187.182c0.549,0.72,0.824,1.604,0.824,2.65c0,0.703-0.295,1.324-0.884,1.864
		c-0.589,0.541-1.296,0.812-2.122,0.812c-0.879,0-1.534-0.273-1.965-0.818c-0.43-0.544-0.646-1.283-0.646-2.214
		c0-1.09,0.238-1.925,0.712-2.505c0.475-0.58,1.134-0.87,1.978-0.87C292.148,186.101,292.849,186.461,293.399,187.182
		 M297.413,186.74c-0.571-1.27-1.391-2.239-2.459-2.907c-1.068-0.668-2.313-1.002-3.737-1.002c-2.022,0-3.619,0.6-4.793,1.8
		c-1.173,1.199-1.76,2.832-1.76,4.896c0,1.916,0.484,3.413,1.451,4.489c0.966,1.077,2.289,1.615,3.968,1.615
		c1.002,0,1.837-0.167,2.505-0.501s1.257-0.914,1.766-1.74h0.159c-0.071,1.503-0.339,2.683-0.805,3.54
		c-0.466,0.857-1.138,1.485-2.017,1.885c-0.879,0.4-1.999,0.601-3.361,0.601c-0.809,0-1.583-0.093-2.321-0.277v3.27
		c0.589,0.123,1.455,0.185,2.597,0.185c3.244,0,5.665-0.937,7.265-2.808c1.599-1.872,2.399-4.706,2.399-8.504
		C298.27,189.523,297.984,188.01,297.413,186.74"/>
</g>
<g>
	<path fill="#35A044" d="M346,217c13.807,0,25-11.193,25-25c0-13.807-11.193-25-25-25s-25,11.193-25,25
		C321,205.807,332.193,217,346,217"/>
	<path fill="#1D1D1B" d="M351.143,186.926c0.413-1.033,1.098-1.549,2.057-1.549c0.94,0,1.623,0.516,2.05,1.549
		c0.426,1.033,0.639,2.731,0.639,5.095c0,2.338-0.211,4.025-0.633,5.062c-0.422,1.037-1.107,1.556-2.056,1.556
		c-0.967,0-1.655-0.513-2.064-1.536c-0.408-1.023-0.613-2.717-0.613-5.082C350.522,189.657,350.729,187.959,351.143,186.926
		 M358.242,184.612c-1.138-1.687-2.819-2.531-5.042-2.531c-2.286,0-3.978,0.806-5.076,2.419c-1.099,1.613-1.648,4.12-1.648,7.521
		c0,3.261,0.565,5.726,1.694,7.396c1.129,1.67,2.806,2.505,5.03,2.505c2.293,0,3.992-0.808,5.095-2.426
		c1.103-1.617,1.655-4.107,1.655-7.475C359.95,188.77,359.38,186.3,358.242,184.612 M341.242,182.384h-3.349l-6.209,4.944
		l1.964,2.452l2.215-1.78c0.264-0.211,0.734-0.653,1.411-1.331l-0.066,2.003l-0.04,1.832v11.153h4.074V182.384z"/>
</g>
<g>
	<path fill="#35A044" d="M400,217c13.807,0,25-11.193,25-25c0-13.807-11.193-25-25-25c-13.807,0-25,11.193-25,25
		C375,205.807,386.193,217,400,217"/>
	<path fill="#1D1D1B" d="M410.654,182.384h-3.35l-6.209,4.944l1.964,2.452l2.216-1.78c0.262-0.211,0.732-0.653,1.409-1.331
		l-0.065,2.003l-0.039,1.832v11.153h4.074V182.384z M395.242,182.384h-3.349l-6.209,4.944l1.964,2.452l2.215-1.78
		c0.264-0.211,0.734-0.653,1.411-1.331l-0.066,2.003l-0.04,1.832v11.153h4.074V182.384z"/>
</g>
<g>
	<path fill="#35A044" d="M454,217c13.807,0,25-11.193,25-25c0-13.807-11.193-25-25-25s-25,11.193-25,25
		C429,205.807,440.193,217,454,217"/>
	<path fill="#1D1D1B" d="M468.055,198.231h-8.398v-0.186l2.479-2.333c1.651-1.512,2.806-2.677,3.46-3.493
		c0.654-0.817,1.139-1.615,1.45-2.394s0.468-1.609,0.468-2.498c0-1.02-0.255-1.925-0.764-2.716c-0.51-0.791-1.227-1.406-2.149-1.846
		c-0.923-0.439-1.987-0.659-3.19-0.659c-0.914,0-1.74,0.09-2.479,0.27c-0.738,0.181-1.42,0.438-2.044,0.772s-1.41,0.905-2.358,1.714
		l2.213,2.623c0.766-0.633,1.5-1.121,2.203-1.463c0.702-0.343,1.428-0.514,2.174-0.514c0.713,0,1.281,0.189,1.709,0.566
		c0.426,0.378,0.639,0.954,0.639,1.728c0,0.519-0.098,1.02-0.29,1.503s-0.511,1.009-0.949,1.575
		c-0.44,0.567-1.376,1.584-2.808,3.053l-4.84,4.891v2.834h13.475V198.231z M449.242,182.384h-3.35l-6.209,4.944l1.964,2.452
		l2.216-1.78c0.264-0.211,0.733-0.653,1.41-1.331l-0.066,2.003l-0.039,1.832v11.153h4.074V182.384z"/>
</g>
<g>
	<path fill="#35A044" d="M508,217c13.807,0,25-11.193,25-25c0-13.807-11.193-25-25-25s-25,11.193-25,25
		C483,205.807,494.193,217,508,217"/>
	<path fill="#1D1D1B" d="M519.57,183.32c-1.156-0.808-2.731-1.213-4.727-1.213c-2.436,0-4.531,0.633-6.289,1.899l1.885,2.808
		c0.801-0.519,1.527-0.884,2.182-1.095c0.656-0.21,1.3-0.316,1.933-0.316c1.828,0,2.742,0.73,2.742,2.189
		c0,0.948-0.345,1.618-1.035,2.01c-0.69,0.391-1.782,0.587-3.276,0.587h-1.49v3.124h1.463c1.617,0,2.796,0.188,3.535,0.566
		c0.737,0.379,1.106,1.021,1.106,1.926c0,1.011-0.321,1.745-0.962,2.202c-0.643,0.456-1.635,0.685-2.98,0.685
		c-0.879,0-1.767-0.119-2.662-0.356c-0.897-0.236-1.719-0.545-2.465-0.923v3.468c1.616,0.694,3.471,1.041,5.562,1.041
		c2.496,0,4.417-0.516,5.761-1.549c1.345-1.033,2.017-2.476,2.017-4.331c0-1.273-0.399-2.287-1.198-3.039
		c-0.8-0.751-1.978-1.223-3.533-1.417v-0.078c1.317-0.316,2.342-0.896,3.071-1.74c0.729-0.845,1.095-1.868,1.095-3.072
		C521.304,185.254,520.726,184.129,519.57,183.32 M503.242,182.384h-3.35l-6.209,4.944l1.964,2.452l2.216-1.78
		c0.264-0.211,0.733-0.653,1.41-1.331l-0.066,2.003l-0.039,1.832v11.153h4.074V182.384z"/>
</g>
<g>
	<path fill="#35A044" d="M562,217c13.807,0,25-11.193,25-25c0-13.807-11.193-25-25-25s-25,11.193-25,25
		C537,205.807,548.193,217,562,217"/>
	<path fill="#1D1D1B" d="M565.548,194.5l3.532-5.34c0.457-0.685,0.849-1.388,1.174-2.108h0.105
		c-0.027,0.167-0.062,0.769-0.105,1.806c-0.045,1.037-0.066,1.828-0.066,2.373v3.27H565.548z M576.49,194.5h-2.32v-12.116h-3.758
		l-8.45,12.445v2.835h8.226v3.994h3.982v-3.994h2.32V194.5z M557.242,182.384h-3.35l-6.209,4.944l1.964,2.452l2.216-1.78
		c0.264-0.211,0.733-0.653,1.41-1.331l-0.066,2.003l-0.039,1.832v11.153h4.074V182.384z"/>
</g>
<g>
	<path fill="#EFD311" d="M238,271c13.807,0,25-11.193,25-25s-11.193-25-25-25s-25,11.193-25,25S224.193,271,238,271"/>
	<path fill="#1D1D1B" d="M243.604,243.53l-0.461,0.092l0.356-3.784h6.882v-3.453h-10.455l-0.725,9.821l1.622,0.87
		c0.351-0.105,0.808-0.204,1.371-0.297c0.562-0.092,1.076-0.138,1.542-0.138c2.575,0,3.863,0.971,3.863,2.913
		c0,2.04-1.244,3.059-3.731,3.059c-0.826,0-1.701-0.116-2.624-0.349c-0.922-0.233-1.731-0.534-2.425-0.903v3.52
		c1.318,0.694,3.049,1.041,5.194,1.041c2.47,0,4.368-0.579,5.695-1.739c1.327-1.16,1.991-2.817,1.991-4.971
		c0-1.819-0.552-3.252-1.655-4.298c-1.103-1.046-2.586-1.568-4.449-1.568C244.804,243.346,244.14,243.407,243.604,243.53
		 M233.242,236.385h-3.349l-6.209,4.943l1.964,2.452l2.215-1.78c0.264-0.211,0.734-0.653,1.411-1.331l-0.066,2.004l-0.04,1.832
		v11.153h4.074V236.385z"/>
</g>
<g>
	<path fill="#EFD311" d="M292,271c13.807,0,25-11.193,25-25s-11.193-25-25-25s-25,11.193-25,25S278.193,271,292,271"/>
	<path fill="#1D1D1B" d="M297.321,251.585c-0.55-0.721-0.824-1.604-0.824-2.649c0-0.712,0.292-1.336,0.877-1.872
		c0.584-0.536,1.289-0.804,2.116-0.804c0.878,0,1.535,0.27,1.971,0.81c0.435,0.541,0.652,1.281,0.652,2.222
		c0,1.081-0.233,1.914-0.699,2.498c-0.466,0.585-1.133,0.877-2.004,0.877C298.567,252.666,297.87,252.306,297.321,251.585
		 M293.312,252.046c0.576,1.267,1.393,2.229,2.452,2.888s2.301,0.988,3.725,0.988c2.056,0,3.665-0.6,4.825-1.799
		c1.16-1.2,1.74-2.828,1.74-4.885c0-1.907-0.488-3.401-1.463-4.482c-0.976-1.08-2.325-1.621-4.048-1.621
		c-1.916,0-3.309,0.746-4.179,2.24h-0.171c0.079-1.52,0.338-2.693,0.777-3.52c0.44-0.826,1.101-1.45,1.985-1.872
		c0.883-0.422,2.023-0.633,3.421-0.633c0.764,0,1.538,0.088,2.32,0.264v-3.256c-0.624-0.132-1.485-0.198-2.584-0.198
		c-3.217,0-5.632,0.933-7.244,2.795c-1.613,1.863-2.419,4.702-2.419,8.517C292.45,249.256,292.737,250.78,293.312,252.046
		 M287.242,236.385h-3.349l-6.209,4.943l1.964,2.452l2.215-1.78c0.264-0.211,0.734-0.653,1.411-1.331l-0.066,2.004l-0.04,1.832
		v11.153h4.074V236.385z"/>
</g>
<g>
	<path fill="#EFD311" d="M346,271c13.807,0,25-11.193,25-25s-11.193-25-25-25s-25,11.193-25,25S332.193,271,346,271"/>
	<path fill="#1D1D1B" d="M352.764,255.658l7.291-16.689v-2.559h-13.83v3.428h9.506l-7.238,15.82H352.764z M341.242,236.385h-3.349
		l-6.209,4.943l1.964,2.452l2.215-1.78c0.264-0.211,0.734-0.653,1.411-1.331l-0.066,2.004l-0.04,1.832v11.153h4.074V236.385z"/>
</g>
<g>
	<path fill="#EFD311" d="M400,271c13.807,0,25-11.193,25-25s-11.193-25-25-25c-13.807,0-25,11.193-25,25S386.193,271,400,271"/>
	<path fill="#1D1D1B" d="M408.887,239.641c0.439,0.352,0.659,0.831,0.659,1.437c0,0.554-0.171,1.042-0.515,1.464
		c-0.343,0.422-0.944,0.835-1.806,1.239c-0.888-0.439-1.501-0.868-1.839-1.285c-0.339-0.418-0.508-0.89-0.508-1.418
		c0-0.597,0.213-1.074,0.64-1.43c0.427-0.356,0.986-0.534,1.681-0.534C407.885,239.113,408.447,239.289,408.887,239.641
		 M407.027,247.261c1.116,0.58,1.924,1.128,2.42,1.642s0.744,1.066,0.744,1.654c0,0.712-0.25,1.286-0.75,1.721
		c-0.502,0.435-1.258,0.652-2.269,0.652c-0.914,0-1.636-0.211-2.162-0.633s-0.791-1.011-0.791-1.767
		C404.22,249.212,405.156,248.122,407.027,247.261 M402.757,237.412c-1.144,0.854-1.714,1.969-1.714,3.35
		c0,0.94,0.24,1.806,0.725,2.597c0.482,0.791,1.273,1.534,2.373,2.228c-1.292,0.651-2.23,1.402-2.814,2.255
		c-0.584,0.853-0.876,1.828-0.876,2.927c0,1.644,0.601,2.914,1.806,3.81c1.203,0.897,2.861,1.345,4.97,1.345
		c2.021,0,3.652-0.48,4.892-1.443c1.238-0.962,1.858-2.234,1.858-3.816c0-1.002-0.313-1.923-0.942-2.762s-1.664-1.646-3.104-2.419
		c1.212-0.607,2.091-1.294,2.636-2.064c0.545-0.769,0.818-1.645,0.818-2.63c0-1.424-0.564-2.555-1.694-3.394
		c-1.13-0.84-2.616-1.259-4.463-1.259C405.389,236.135,403.898,236.561,402.757,237.412 M395.242,236.385h-3.349l-6.209,4.943
		l1.964,2.452l2.215-1.78c0.264-0.211,0.734-0.653,1.411-1.331l-0.066,2.004l-0.04,1.832v11.153h4.074V236.385z"/>
</g>
<g>
	<path fill="#EFD311" d="M454,271c13.807,0,25-11.193,25-25s-11.193-25-25-25s-25,11.193-25,25S440.193,271,454,271"/>
	<path fill="#1D1D1B" d="M463.104,240.511c0.55,0.721,0.824,1.604,0.824,2.649c0,0.704-0.295,1.325-0.884,1.866
		c-0.59,0.54-1.297,0.811-2.122,0.811c-0.88,0-1.534-0.272-1.966-0.817c-0.43-0.545-0.646-1.283-0.646-2.215
		c0-1.09,0.238-1.925,0.712-2.504c0.475-0.581,1.135-0.871,1.979-0.871C461.854,239.43,462.555,239.79,463.104,240.511
		 M467.119,240.069c-0.571-1.271-1.392-2.239-2.459-2.907c-1.068-0.668-2.314-1.002-3.737-1.002c-2.022,0-3.619,0.601-4.793,1.799
		c-1.173,1.2-1.761,2.833-1.761,4.898c0,1.916,0.484,3.413,1.451,4.489s2.289,1.614,3.969,1.614c1.002,0,1.836-0.167,2.504-0.501
		c0.669-0.334,1.258-0.914,1.767-1.739h0.159c-0.071,1.503-0.339,2.683-0.805,3.54c-0.467,0.856-1.139,1.484-2.018,1.885
		c-0.879,0.399-1.999,0.6-3.361,0.6c-0.809,0-1.582-0.092-2.32-0.276v3.27c0.589,0.123,1.455,0.184,2.597,0.184
		c3.243,0,5.665-0.936,7.265-2.808s2.399-4.707,2.399-8.503C467.976,242.854,467.689,241.339,467.119,240.069 M449.242,236.385
		h-3.35l-6.209,4.943l1.964,2.452l2.216-1.78c0.264-0.211,0.733-0.653,1.41-1.331l-0.066,2.004l-0.039,1.832v11.153h4.074V236.385z"
		/>
</g>
<g>
	<path fill="#EFD311" d="M508,271c13.807,0,25-11.193,25-25s-11.193-25-25-25s-25,11.193-25,25S494.193,271,508,271"/>
	<path fill="#1D1D1B" d="M513.143,240.926c0.414-1.033,1.099-1.549,2.057-1.549c0.941,0,1.624,0.516,2.05,1.549
		c0.427,1.033,0.64,2.731,0.64,5.097c0,2.338-0.211,4.024-0.633,5.062s-1.107,1.556-2.057,1.556c-0.967,0-1.654-0.512-2.062-1.536
		c-0.41-1.023-0.613-2.718-0.613-5.081C512.523,243.657,512.729,241.959,513.143,240.926 M520.242,238.612
		c-1.139-1.688-2.819-2.531-5.043-2.531c-2.285,0-3.977,0.807-5.076,2.419c-1.098,1.613-1.646,4.12-1.646,7.522
		c0,3.26,0.563,5.726,1.693,7.396c1.129,1.67,2.805,2.504,5.029,2.504c2.294,0,3.992-0.808,5.096-2.425s1.654-4.109,1.654-7.475
		C521.949,242.77,521.38,240.3,520.242,238.612 M506.643,252.231h-8.397v-0.186l2.479-2.333c1.651-1.512,2.805-2.676,3.459-3.494
		c0.655-0.816,1.139-1.615,1.451-2.393c0.312-0.777,0.467-1.61,0.467-2.498c0-1.02-0.254-1.925-0.764-2.716
		s-1.226-1.406-2.148-1.846c-0.924-0.439-1.986-0.659-3.191-0.659c-0.914,0-1.74,0.091-2.479,0.271
		c-0.737,0.18-1.42,0.438-2.043,0.771c-0.625,0.334-1.41,0.904-2.359,1.714l2.214,2.623c0.765-0.633,1.499-1.12,2.202-1.463
		c0.703-0.344,1.428-0.515,2.175-0.515c0.712,0,1.281,0.189,1.708,0.567c0.426,0.378,0.639,0.953,0.639,1.727
		c0,0.519-0.097,1.02-0.289,1.503c-0.193,0.483-0.511,1.009-0.949,1.575c-0.44,0.567-1.377,1.584-2.809,3.052l-4.839,4.892v2.835
		h13.474V252.231z"/>
</g>
<g>
	<path fill="#EFD311" d="M562,271c13.807,0,25-11.193,25-25s-11.193-25-25-25s-25,11.193-25,25S548.193,271,562,271"/>
	<path fill="#1D1D1B" d="M572.653,236.384h-3.349l-6.209,4.944l1.965,2.452l2.213-1.779c0.265-0.211,0.734-0.655,1.412-1.332
		l-0.066,2.004l-0.039,1.832v11.154h4.073V236.384z M560.643,252.231h-8.397v-0.186l2.479-2.333
		c1.651-1.512,2.805-2.676,3.459-3.494c0.655-0.816,1.139-1.615,1.451-2.393c0.312-0.777,0.467-1.61,0.467-2.498
		c0-1.02-0.254-1.925-0.764-2.716s-1.226-1.406-2.148-1.846c-0.924-0.439-1.986-0.659-3.191-0.659c-0.914,0-1.74,0.091-2.479,0.271
		c-0.737,0.18-1.42,0.438-2.043,0.771c-0.625,0.334-1.41,0.904-2.359,1.714l2.214,2.623c0.765-0.633,1.499-1.12,2.202-1.463
		c0.703-0.344,1.428-0.515,2.175-0.515c0.712,0,1.281,0.189,1.708,0.567c0.426,0.378,0.639,0.953,0.639,1.727
		c0,0.519-0.097,1.02-0.289,1.503c-0.193,0.483-0.511,1.009-0.949,1.575c-0.44,0.567-1.377,1.584-2.809,3.052l-4.839,4.892v2.835
		h13.474V252.231z"/>
</g>
<g>
	<path fill="#76497D" d="M238,325c13.807,0,25-11.193,25-25s-11.193-25-25-25s-25,11.193-25,25S224.193,325,238,325"/>
	<path fill="#FFFFFF" d="M252.055,306.231h-8.398v-0.186l2.478-2.333c1.652-1.512,2.806-2.676,3.461-3.494
		c0.655-0.816,1.138-1.615,1.45-2.393s0.468-1.61,0.468-2.498c0-1.02-0.255-1.925-0.765-2.716c-0.509-0.791-1.226-1.406-2.148-1.846
		c-0.923-0.439-1.987-0.659-3.191-0.659c-0.914,0-1.74,0.091-2.478,0.271c-0.739,0.18-1.42,0.438-2.044,0.771
		s-1.411,0.904-2.36,1.714l2.215,2.623c0.765-0.633,1.498-1.12,2.202-1.463c0.703-0.344,1.428-0.515,2.175-0.515
		c0.712,0,1.281,0.189,1.707,0.567c0.427,0.378,0.64,0.953,0.64,1.727c0,0.519-0.097,1.02-0.29,1.503
		c-0.194,0.483-0.51,1.009-0.95,1.575c-0.439,0.567-1.375,1.584-2.808,3.052l-4.838,4.892v2.835h13.474V306.231z M236.643,306.231
		h-8.398v-0.186l2.479-2.333c1.652-1.512,2.805-2.676,3.46-3.494c0.655-0.816,1.138-1.615,1.45-2.393s0.468-1.61,0.468-2.498
		c0-1.02-0.255-1.925-0.764-2.716c-0.51-0.791-1.226-1.406-2.149-1.846c-0.923-0.439-1.986-0.659-3.191-0.659
		c-0.914,0-1.74,0.091-2.478,0.271c-0.738,0.18-1.42,0.438-2.044,0.771s-1.41,0.904-2.359,1.714l2.214,2.623
		c0.765-0.633,1.499-1.12,2.202-1.463c0.703-0.344,1.428-0.515,2.175-0.515c0.712,0,1.281,0.189,1.708,0.567
		c0.426,0.378,0.639,0.953,0.639,1.727c0,0.519-0.097,1.02-0.29,1.503s-0.51,1.009-0.949,1.575c-0.44,0.567-1.376,1.584-2.808,3.052
		l-4.839,4.892v2.835h13.474V306.231z"/>
</g>
<g>
	<path fill="#76497D" d="M292,325c13.807,0,25-11.193,25-25s-11.193-25-25-25s-25,11.193-25,25S278.193,325,292,325"/>
	<path fill="#FFFFFF" d="M303.57,291.32c-1.156-0.809-2.732-1.213-4.727-1.213c-2.434,0-4.531,0.633-6.288,1.898l1.885,2.809
		c0.8-0.519,1.527-0.884,2.182-1.095c0.654-0.211,1.298-0.316,1.931-0.316c1.828,0,2.742,0.729,2.742,2.188
		c0,0.949-0.345,1.619-1.035,2.01c-0.69,0.393-1.782,0.588-3.276,0.588h-1.489v3.125h1.463c1.617,0,2.795,0.188,3.533,0.565
		c0.738,0.378,1.108,1.021,1.108,1.925c0,1.012-0.321,1.745-0.963,2.202c-0.641,0.457-1.635,0.686-2.979,0.686
		c-0.879,0-1.767-0.118-2.663-0.356c-0.897-0.237-1.719-0.544-2.466-0.922v3.467c1.617,0.694,3.472,1.041,5.564,1.041
		c2.496,0,4.416-0.516,5.761-1.549c1.345-1.032,2.017-2.476,2.017-4.33c0-1.275-0.4-2.288-1.2-3.039
		c-0.8-0.752-1.977-1.224-3.533-1.418v-0.079c1.319-0.315,2.342-0.896,3.072-1.74c0.729-0.844,1.094-1.866,1.094-3.071
		C305.303,293.254,304.725,292.129,303.57,291.32 M290.643,306.231h-8.398v-0.186l2.479-2.333c1.652-1.512,2.805-2.676,3.46-3.494
		c0.655-0.816,1.138-1.615,1.45-2.393s0.468-1.61,0.468-2.498c0-1.02-0.255-1.925-0.764-2.716c-0.51-0.791-1.226-1.406-2.149-1.846
		c-0.923-0.439-1.986-0.659-3.191-0.659c-0.914,0-1.74,0.091-2.478,0.271c-0.738,0.18-1.42,0.438-2.044,0.771
		s-1.41,0.904-2.359,1.714l2.214,2.623c0.765-0.633,1.499-1.12,2.202-1.463c0.703-0.344,1.428-0.515,2.175-0.515
		c0.712,0,1.281,0.189,1.708,0.567c0.426,0.378,0.639,0.953,0.639,1.727c0,0.519-0.097,1.02-0.29,1.503s-0.51,1.009-0.949,1.575
		c-0.44,0.567-1.376,1.584-2.808,3.052l-4.839,4.892v2.835h13.474V306.231z"/>
</g>
<g>
	<path fill="#76497D" d="M346,325c13.807,0,25-11.193,25-25s-11.193-25-25-25s-25,11.193-25,25S332.193,325,346,325"/>
	<path fill="#FFFFFF" d="M349.547,302.5l3.534-5.339c0.456-0.687,0.848-1.389,1.173-2.11h0.105c-0.026,0.167-0.061,0.77-0.105,1.807
		s-0.066,1.828-0.066,2.374v3.269H349.547z M360.49,302.5h-2.321v-12.116h-3.757l-8.451,12.446v2.834h8.227v3.995h3.981v-3.995
		h2.321V302.5z M344.643,306.231h-8.398v-0.186l2.479-2.333c1.652-1.512,2.805-2.676,3.46-3.494c0.655-0.816,1.138-1.615,1.45-2.393
		s0.468-1.61,0.468-2.498c0-1.02-0.255-1.925-0.764-2.716c-0.51-0.791-1.226-1.406-2.149-1.846
		c-0.923-0.439-1.986-0.659-3.191-0.659c-0.914,0-1.74,0.091-2.478,0.271c-0.738,0.18-1.42,0.438-2.044,0.771
		s-1.41,0.904-2.359,1.714l2.214,2.623c0.765-0.633,1.499-1.12,2.202-1.463c0.703-0.344,1.428-0.515,2.175-0.515
		c0.712,0,1.281,0.189,1.708,0.567c0.426,0.378,0.639,0.953,0.639,1.727c0,0.519-0.097,1.02-0.29,1.503s-0.51,1.009-0.949,1.575
		c-0.44,0.567-1.376,1.584-2.808,3.052l-4.839,4.892v2.835h13.474V306.231z"/>
</g>
<g>
	<path fill="#76497D" d="M400,325c13.807,0,25-11.193,25-25s-11.193-25-25-25c-13.807,0-25,11.193-25,25S386.193,325,400,325"/>
	<path fill="#FFFFFF" d="M405.604,297.53l-0.461,0.092l0.355-3.784h6.882v-3.454h-10.454l-0.725,9.822l1.621,0.87
		c0.352-0.105,0.809-0.204,1.371-0.296c0.562-0.093,1.076-0.14,1.543-0.14c2.574,0,3.863,0.972,3.863,2.914
		c0,2.039-1.244,3.059-3.731,3.059c-0.827,0-1.701-0.116-2.624-0.35c-0.923-0.232-1.732-0.533-2.426-0.902v3.52
		c1.319,0.694,3.05,1.041,5.196,1.041c2.469,0,4.367-0.58,5.694-1.74c1.327-1.159,1.991-2.816,1.991-4.97
		c0-1.819-0.553-3.252-1.655-4.298s-2.586-1.569-4.448-1.569C406.805,297.345,406.141,297.407,405.604,297.53 M398.643,306.231
		h-8.398v-0.186l2.479-2.333c1.652-1.512,2.805-2.676,3.46-3.494c0.655-0.816,1.138-1.615,1.45-2.393s0.468-1.61,0.468-2.498
		c0-1.02-0.255-1.925-0.764-2.716c-0.51-0.791-1.226-1.406-2.149-1.846c-0.923-0.439-1.986-0.659-3.191-0.659
		c-0.914,0-1.74,0.091-2.478,0.271c-0.738,0.18-1.42,0.438-2.044,0.771s-1.41,0.904-2.359,1.714l2.214,2.623
		c0.765-0.633,1.499-1.12,2.202-1.463c0.703-0.344,1.428-0.515,2.175-0.515c0.712,0,1.281,0.189,1.708,0.567
		c0.426,0.378,0.639,0.953,0.639,1.727c0,0.519-0.097,1.02-0.29,1.503s-0.51,1.009-0.949,1.575c-0.44,0.567-1.376,1.584-2.808,3.052
		l-4.839,4.892v2.835h13.474V306.231z"/>
</g>
<g>
	<path fill="#76497D" d="M454,325c13.807,0,25-11.193,25-25s-11.193-25-25-25s-25,11.193-25,25S440.193,325,454,325"/>
	<path fill="#FFFFFF" d="M459.32,305.585c-0.549-0.721-0.823-1.604-0.823-2.65c0-0.712,0.292-1.336,0.876-1.871
		c0.585-0.536,1.29-0.805,2.116-0.805c0.879,0,1.536,0.271,1.971,0.812c0.435,0.54,0.653,1.28,0.653,2.221
		c0,1.081-0.233,1.914-0.699,2.498c-0.466,0.585-1.134,0.877-2.004,0.877C460.566,306.666,459.87,306.306,459.32,305.585
		 M455.312,306.046c0.576,1.267,1.394,2.229,2.453,2.888c1.059,0.659,2.299,0.988,3.724,0.988c2.057,0,3.665-0.599,4.825-1.799
		s1.74-2.828,1.74-4.885c0-1.907-0.488-3.401-1.463-4.482c-0.976-1.081-2.326-1.622-4.048-1.622c-1.916,0-3.31,0.747-4.179,2.242
		h-0.172c0.078-1.521,0.339-2.694,0.777-3.52c0.44-0.827,1.102-1.451,1.984-1.873c0.884-0.421,2.023-0.633,3.421-0.633
		c0.765,0,1.538,0.089,2.321,0.264v-3.256c-0.624-0.133-1.486-0.198-2.584-0.198c-3.217,0-5.633,0.932-7.245,2.795
		c-1.613,1.864-2.419,4.702-2.419,8.517C454.449,303.256,454.737,304.781,455.312,306.046 M452.643,306.231h-8.397v-0.186
		l2.479-2.333c1.651-1.512,2.805-2.676,3.459-3.494c0.655-0.816,1.139-1.615,1.451-2.393c0.312-0.777,0.467-1.61,0.467-2.498
		c0-1.02-0.254-1.925-0.764-2.716s-1.226-1.406-2.148-1.846c-0.924-0.439-1.986-0.659-3.191-0.659c-0.914,0-1.74,0.091-2.479,0.271
		c-0.737,0.18-1.42,0.438-2.043,0.771c-0.625,0.334-1.41,0.904-2.359,1.714l2.214,2.623c0.765-0.633,1.499-1.12,2.202-1.463
		c0.703-0.344,1.428-0.515,2.175-0.515c0.712,0,1.281,0.189,1.708,0.567c0.426,0.378,0.639,0.953,0.639,1.727
		c0,0.519-0.097,1.02-0.289,1.503c-0.193,0.483-0.511,1.009-0.949,1.575c-0.44,0.567-1.377,1.584-2.809,3.052l-4.839,4.892v2.835
		h13.474V306.231z"/>
</g>
<g>
	<path fill="#76497D" d="M508,325c13.807,0,25-11.193,25-25s-11.193-25-25-25s-25,11.193-25,25S494.193,325,508,325"/>
	<path fill="#FFFFFF" d="M514.764,309.659l7.291-16.691v-2.557h-13.83v3.427h9.506l-7.237,15.821H514.764z M506.643,306.231h-8.397
		v-0.186l2.479-2.333c1.651-1.512,2.805-2.676,3.459-3.494c0.655-0.816,1.139-1.615,1.451-2.393c0.312-0.777,0.467-1.61,0.467-2.498
		c0-1.02-0.254-1.925-0.764-2.716s-1.226-1.406-2.148-1.846c-0.924-0.439-1.986-0.659-3.191-0.659c-0.914,0-1.74,0.091-2.479,0.271
		c-0.737,0.18-1.42,0.438-2.043,0.771c-0.625,0.334-1.41,0.904-2.359,1.714l2.214,2.623c0.765-0.633,1.499-1.12,2.202-1.463
		c0.703-0.344,1.428-0.515,2.175-0.515c0.712,0,1.281,0.189,1.708,0.567c0.426,0.378,0.639,0.953,0.639,1.727
		c0,0.519-0.097,1.02-0.289,1.503c-0.193,0.483-0.511,1.009-0.949,1.575c-0.44,0.567-1.377,1.584-2.809,3.052l-4.839,4.892v2.835
		h13.474V306.231z"/>
</g>
<g>
	<path fill="#76497D" d="M562,325c13.807,0,25-11.193,25-25s-11.193-25-25-25s-25,11.193-25,25S548.193,325,562,325"/>
	<path fill="#FFFFFF" d="M570.887,293.641c0.439,0.352,0.659,0.83,0.659,1.438c0,0.553-0.172,1.041-0.514,1.463
		c-0.343,0.422-0.945,0.835-1.806,1.239c-0.889-0.439-1.502-0.868-1.84-1.285c-0.339-0.417-0.508-0.89-0.508-1.417
		c0-0.598,0.213-1.075,0.639-1.431c0.427-0.356,0.987-0.534,1.682-0.534C569.885,293.113,570.447,293.289,570.887,293.641
		 M569.028,301.261c1.116,0.58,1.922,1.127,2.419,1.642c0.496,0.514,0.744,1.065,0.744,1.654c0,0.712-0.25,1.285-0.752,1.721
		c-0.5,0.435-1.256,0.652-2.267,0.652c-0.913,0-1.635-0.211-2.161-0.633c-0.529-0.422-0.791-1.011-0.791-1.767
		C566.221,303.212,567.156,302.122,569.028,301.261 M564.756,291.413c-1.142,0.852-1.714,1.969-1.714,3.348
		c0,0.941,0.242,1.807,0.726,2.598s1.274,1.533,2.373,2.228c-1.291,0.651-2.23,1.402-2.814,2.255
		c-0.585,0.853-0.877,1.828-0.877,2.927c0,1.644,0.602,2.913,1.806,3.811c1.204,0.896,2.861,1.344,4.972,1.344
		c2.021,0,3.65-0.48,4.891-1.443c1.238-0.963,1.859-2.234,1.859-3.816c0-1.002-0.315-1.922-0.943-2.762
		c-0.629-0.84-1.663-1.646-3.105-2.419c1.213-0.606,2.092-1.294,2.637-2.063c0.545-0.769,0.817-1.646,0.817-2.63
		c0-1.424-0.565-2.556-1.694-3.396c-1.129-0.839-2.616-1.259-4.461-1.259C567.389,290.134,565.898,290.56,564.756,291.413
		 M560.643,306.231h-8.397v-0.186l2.479-2.333c1.651-1.512,2.805-2.676,3.459-3.494c0.655-0.816,1.139-1.615,1.451-2.393
		c0.312-0.777,0.467-1.61,0.467-2.498c0-1.02-0.254-1.925-0.764-2.716s-1.226-1.406-2.148-1.846
		c-0.924-0.439-1.986-0.659-3.191-0.659c-0.914,0-1.74,0.091-2.479,0.271c-0.737,0.18-1.42,0.438-2.043,0.771
		c-0.625,0.334-1.41,0.904-2.359,1.714l2.214,2.623c0.765-0.633,1.499-1.12,2.202-1.463c0.703-0.344,1.428-0.515,2.175-0.515
		c0.712,0,1.281,0.189,1.708,0.567c0.426,0.378,0.639,0.953,0.639,1.727c0,0.519-0.097,1.02-0.289,1.503
		c-0.193,0.483-0.511,1.009-0.949,1.575c-0.44,0.567-1.377,1.584-2.809,3.052l-4.839,4.892v2.835h13.474V306.231z"/>
</g>
<g>
	<path fill="#42519C" d="M238,379c13.807,0,25-11.193,25-25s-11.193-25-25-25s-25,11.193-25,25S224.193,379,238,379"/>
	<path fill="#FFFFFF" d="M247.104,348.511c0.549,0.722,0.824,1.604,0.824,2.65c0,0.703-0.294,1.325-0.883,1.865
		c-0.589,0.541-1.297,0.811-2.123,0.811c-0.879,0-1.534-0.271-1.964-0.817c-0.431-0.545-0.646-1.283-0.646-2.215
		c0-1.09,0.237-1.925,0.712-2.505c0.474-0.58,1.134-0.87,1.977-0.87C245.854,347.43,246.555,347.79,247.104,348.511
		 M251.119,348.069c-0.572-1.271-1.391-2.239-2.459-2.907s-2.314-1.002-3.738-1.002c-2.021,0-3.619,0.6-4.792,1.8
		c-1.173,1.199-1.76,2.832-1.76,4.897c0,1.917,0.483,3.412,1.45,4.488c0.967,1.077,2.29,1.615,3.969,1.615
		c1.001,0,1.836-0.166,2.504-0.501c0.668-0.333,1.257-0.914,1.767-1.74h0.158c-0.07,1.503-0.338,2.684-0.804,3.54
		c-0.466,0.857-1.138,1.485-2.017,1.885c-0.879,0.4-2,0.601-3.362,0.601c-0.809,0-1.582-0.092-2.32-0.277v3.271
		c0.589,0.123,1.454,0.184,2.597,0.184c3.243,0,5.664-0.936,7.264-2.808s2.4-4.706,2.4-8.503
		C251.976,350.853,251.69,349.339,251.119,348.069 M236.643,360.231h-8.398v-0.186l2.479-2.333c1.652-1.512,2.805-2.676,3.46-3.494
		c0.655-0.816,1.138-1.615,1.45-2.393s0.468-1.61,0.468-2.498c0-1.02-0.255-1.925-0.764-2.716c-0.51-0.791-1.226-1.406-2.149-1.846
		c-0.923-0.439-1.986-0.659-3.191-0.659c-0.914,0-1.74,0.091-2.478,0.271c-0.738,0.18-1.42,0.438-2.044,0.771
		s-1.41,0.904-2.359,1.714l2.214,2.623c0.765-0.633,1.499-1.12,2.202-1.463c0.703-0.344,1.428-0.515,2.175-0.515
		c0.712,0,1.281,0.189,1.708,0.567c0.426,0.378,0.639,0.953,0.639,1.727c0,0.519-0.097,1.02-0.29,1.503s-0.51,1.009-0.949,1.575
		c-0.44,0.567-1.376,1.584-2.808,3.052l-4.839,4.892v2.835h13.474V360.231z"/>
</g>
<g>
	<path fill="#42519C" d="M292,379c13.807,0,25-11.193,25-25s-11.193-25-25-25s-25,11.193-25,25S278.193,379,292,379"/>
	<path fill="#FFFFFF" d="M297.143,348.927c0.413-1.033,1.098-1.55,2.056-1.55c0.941,0,1.624,0.517,2.05,1.55
		c0.427,1.032,0.64,2.73,0.64,5.095c0,2.338-0.211,4.025-0.633,5.062c-0.422,1.037-1.108,1.556-2.057,1.556
		c-0.967,0-1.654-0.513-2.063-1.536c-0.409-1.023-0.613-2.717-0.613-5.082C296.523,351.657,296.729,349.959,297.143,348.927
		 M304.242,346.612c-1.138-1.688-2.819-2.531-5.043-2.531c-2.285,0-3.977,0.807-5.075,2.419c-1.099,1.613-1.648,4.12-1.648,7.521
		c0,3.261,0.564,5.726,1.694,7.396c1.129,1.67,2.806,2.505,5.029,2.505c2.294,0,3.993-0.808,5.096-2.426
		c1.103-1.617,1.654-4.107,1.654-7.475C305.949,350.77,305.38,348.299,304.242,346.612 M288.158,345.32
		c-1.156-0.809-2.731-1.213-4.726-1.213c-2.435,0-4.531,0.633-6.289,1.898l1.885,2.809c0.8-0.52,1.527-0.884,2.182-1.095
		c0.655-0.212,1.299-0.316,1.932-0.316c1.828,0,2.742,0.729,2.742,2.188c0,0.949-0.345,1.619-1.035,2.011
		c-0.69,0.391-1.782,0.587-3.276,0.587h-1.49v3.124h1.463c1.617,0,2.795,0.188,3.534,0.566c0.738,0.378,1.107,1.021,1.107,1.926
		c0,1.011-0.321,1.745-0.962,2.201c-0.642,0.457-1.635,0.686-2.98,0.686c-0.879,0-1.766-0.119-2.663-0.356
		c-0.896-0.236-1.718-0.545-2.465-0.923v3.468c1.617,0.694,3.471,1.041,5.563,1.041c2.496,0,4.417-0.516,5.761-1.549
		c1.345-1.033,2.018-2.476,2.018-4.331c0-1.273-0.401-2.287-1.2-3.039c-0.8-0.751-1.978-1.223-3.533-1.417v-0.079
		c1.318-0.315,2.342-0.896,3.071-1.739c0.73-0.845,1.095-1.868,1.095-3.072C289.892,347.254,289.314,346.129,288.158,345.32"/>
</g>
<g>
	<path fill="#42519C" d="M346,379c13.807,0,25-11.193,25-25s-11.193-25-25-25s-25,11.193-25,25S332.193,379,346,379"/>
	<path fill="#FFFFFF" d="M356.653,344.385h-3.348l-6.21,4.943l1.965,2.452l2.214-1.78c0.264-0.211,0.734-0.653,1.411-1.331
		l-0.066,2.004l-0.039,1.832v11.153h4.073V344.385z M342.158,345.32c-1.156-0.809-2.731-1.213-4.726-1.213
		c-2.435,0-4.531,0.633-6.289,1.898l1.885,2.809c0.8-0.52,1.527-0.884,2.182-1.095c0.655-0.212,1.299-0.316,1.932-0.316
		c1.828,0,2.742,0.729,2.742,2.188c0,0.949-0.345,1.619-1.035,2.011c-0.69,0.391-1.782,0.587-3.276,0.587h-1.49v3.124h1.463
		c1.617,0,2.795,0.188,3.534,0.566c0.738,0.378,1.107,1.021,1.107,1.926c0,1.011-0.321,1.745-0.962,2.201
		c-0.642,0.457-1.635,0.686-2.98,0.686c-0.879,0-1.766-0.119-2.663-0.356c-0.896-0.236-1.718-0.545-2.465-0.923v3.468
		c1.617,0.694,3.471,1.041,5.563,1.041c2.496,0,4.417-0.516,5.761-1.549c1.345-1.033,2.018-2.476,2.018-4.331
		c0-1.273-0.401-2.287-1.2-3.039c-0.8-0.751-1.978-1.223-3.533-1.417v-0.079c1.318-0.315,2.342-0.896,3.071-1.739
		c0.73-0.845,1.095-1.868,1.095-3.072C343.892,347.254,343.314,346.129,342.158,345.32"/>
</g>
<g>
	<path fill="#42519C" d="M400,379c13.807,0,25-11.193,25-25s-11.193-25-25-25c-13.807,0-25,11.193-25,25S386.193,379,400,379"/>
	<path fill="#FFFFFF" d="M414.055,360.231h-8.397v-0.186l2.478-2.333c1.653-1.512,2.807-2.677,3.461-3.493
		c0.655-0.817,1.139-1.615,1.45-2.394s0.468-1.609,0.468-2.498c0-1.02-0.255-1.925-0.764-2.716c-0.51-0.791-1.227-1.406-2.148-1.846
		c-0.924-0.439-1.988-0.659-3.191-0.659c-0.914,0-1.74,0.09-2.479,0.27c-0.738,0.182-1.42,0.438-2.043,0.772
		c-0.625,0.334-1.41,0.905-2.361,1.713l2.215,2.624c0.765-0.633,1.499-1.121,2.202-1.463c0.703-0.343,1.428-0.516,2.175-0.516
		c0.712,0,1.28,0.19,1.707,0.567c0.427,0.378,0.64,0.954,0.64,1.728c0,0.519-0.097,1.02-0.29,1.503
		c-0.194,0.483-0.51,1.009-0.948,1.575c-0.44,0.567-1.377,1.584-2.81,3.053l-4.838,4.891v2.834h13.474V360.231z M396.158,345.32
		c-1.156-0.809-2.731-1.213-4.726-1.213c-2.435,0-4.531,0.633-6.289,1.898l1.885,2.809c0.8-0.52,1.527-0.884,2.182-1.095
		c0.655-0.212,1.299-0.316,1.932-0.316c1.828,0,2.742,0.729,2.742,2.188c0,0.949-0.345,1.619-1.035,2.011
		c-0.69,0.391-1.782,0.587-3.276,0.587h-1.49v3.124h1.463c1.617,0,2.795,0.188,3.534,0.566c0.738,0.378,1.107,1.021,1.107,1.926
		c0,1.011-0.321,1.745-0.962,2.201c-0.642,0.457-1.635,0.686-2.98,0.686c-0.879,0-1.766-0.119-2.663-0.356
		c-0.896-0.236-1.718-0.545-2.465-0.923v3.468c1.617,0.694,3.471,1.041,5.563,1.041c2.496,0,4.417-0.516,5.761-1.549
		c1.345-1.033,2.018-2.476,2.018-4.331c0-1.273-0.401-2.287-1.2-3.039c-0.8-0.751-1.978-1.223-3.533-1.417v-0.079
		c1.318-0.315,2.342-0.896,3.071-1.739c0.73-0.845,1.095-1.868,1.095-3.072C397.892,347.254,397.314,346.129,396.158,345.32"/>
</g>
<g>
	<path fill="#42519C" d="M454,379c13.807,0,25-11.193,25-25s-11.193-25-25-25s-25,11.193-25,25S440.193,379,454,379"/>
	<path fill="#FFFFFF" d="M465.57,345.32c-1.156-0.809-2.732-1.213-4.728-1.213c-2.434,0-4.53,0.633-6.288,1.898l1.885,2.809
		c0.801-0.52,1.527-0.884,2.183-1.095c0.655-0.212,1.298-0.316,1.931-0.316c1.828,0,2.742,0.729,2.742,2.188
		c0,0.949-0.345,1.619-1.033,2.011c-0.691,0.391-1.783,0.587-3.277,0.587h-1.489v3.124h1.463c1.617,0,2.795,0.188,3.533,0.566
		c0.739,0.378,1.108,1.021,1.108,1.926c0,1.011-0.322,1.745-0.963,2.201c-0.642,0.457-1.635,0.686-2.979,0.686
		c-0.88,0-1.767-0.119-2.663-0.356c-0.896-0.236-1.719-0.545-2.467-0.923v3.468c1.617,0.694,3.473,1.041,5.564,1.041
		c2.496,0,4.416-0.516,5.762-1.549c1.345-1.033,2.017-2.476,2.017-4.331c0-1.273-0.399-2.287-1.2-3.039
		c-0.799-0.751-1.977-1.223-3.533-1.417v-0.079c1.319-0.315,2.342-0.896,3.072-1.739c0.729-0.845,1.094-1.868,1.094-3.072
		C467.303,347.254,466.725,346.129,465.57,345.32 M450.158,345.32c-1.156-0.809-2.731-1.213-4.727-1.213
		c-2.435,0-4.531,0.633-6.289,1.898l1.885,2.809c0.801-0.52,1.527-0.884,2.183-1.095c0.655-0.212,1.299-0.316,1.933-0.316
		c1.828,0,2.741,0.729,2.741,2.188c0,0.949-0.345,1.619-1.034,2.011c-0.69,0.391-1.783,0.587-3.276,0.587h-1.49v3.124h1.463
		c1.617,0,2.795,0.188,3.534,0.566c0.738,0.378,1.107,1.021,1.107,1.926c0,1.011-0.321,1.745-0.963,2.201
		c-0.642,0.457-1.635,0.686-2.979,0.686c-0.879,0-1.767-0.119-2.663-0.356c-0.896-0.236-1.719-0.545-2.465-0.923v3.468
		c1.617,0.694,3.471,1.041,5.562,1.041c2.496,0,4.418-0.516,5.762-1.549c1.345-1.033,2.018-2.476,2.018-4.331
		c0-1.273-0.4-2.287-1.2-3.039c-0.8-0.751-1.978-1.223-3.532-1.417v-0.079c1.317-0.315,2.342-0.896,3.07-1.739
		c0.73-0.845,1.096-1.868,1.096-3.072C451.893,347.254,451.314,346.129,450.158,345.32"/>
</g>
<g>
	<path fill="#42519C" d="M508,379c13.807,0,25-11.193,25-25s-11.193-25-25-25s-25,11.193-25,25S494.193,379,508,379"/>
	<path fill="#FFFFFF" d="M511.547,356.5l3.534-5.34c0.457-0.685,0.849-1.388,1.173-2.108h0.105
		c-0.026,0.167-0.062,0.769-0.105,1.806s-0.066,1.828-0.066,2.373v3.27H511.547z M522.49,356.5h-2.321v-12.115h-3.757l-8.451,12.444
		v2.835h8.227v3.994h3.981v-3.994h2.321V356.5z M504.158,345.32c-1.156-0.809-2.731-1.213-4.727-1.213
		c-2.435,0-4.531,0.633-6.289,1.898l1.885,2.809c0.801-0.52,1.527-0.884,2.183-1.095c0.655-0.212,1.299-0.316,1.933-0.316
		c1.827,0,2.741,0.729,2.741,2.188c0,0.949-0.345,1.619-1.034,2.011c-0.69,0.391-1.783,0.587-3.277,0.587h-1.489v3.124h1.463
		c1.617,0,2.795,0.188,3.534,0.566c0.738,0.378,1.107,1.021,1.107,1.926c0,1.011-0.321,1.745-0.963,2.201
		c-0.642,0.457-1.635,0.686-2.979,0.686c-0.879,0-1.767-0.119-2.663-0.356c-0.896-0.236-1.719-0.545-2.465-0.923v3.468
		c1.617,0.694,3.471,1.041,5.562,1.041c2.496,0,4.418-0.516,5.762-1.549c1.345-1.033,2.018-2.476,2.018-4.331
		c0-1.273-0.4-2.287-1.2-3.039c-0.8-0.751-1.978-1.223-3.532-1.417v-0.079c1.317-0.315,2.342-0.896,3.07-1.739
		c0.73-0.845,1.096-1.868,1.096-3.072C505.893,347.254,505.314,346.129,504.158,345.32"/>
</g>
<g>
	<path fill="#42519C" d="M562,379c13.807,0,25-11.193,25-25s-11.193-25-25-25s-25,11.193-25,25S548.193,379,562,379"/>
	<path fill="#FFFFFF" d="M567.604,351.529l-0.461,0.093l0.356-3.784h6.881v-3.453h-10.454l-0.725,9.821l1.621,0.87
		c0.352-0.105,0.809-0.204,1.371-0.297c0.562-0.092,1.076-0.138,1.543-0.138c2.574,0,3.863,0.971,3.863,2.913
		c0,2.039-1.244,3.059-3.731,3.059c-0.827,0-1.701-0.116-2.624-0.349c-0.924-0.233-1.73-0.534-2.426-0.903v3.52
		c1.318,0.694,3.05,1.041,5.195,1.041c2.469,0,4.367-0.579,5.694-1.739s1.991-2.817,1.991-4.971c0-1.819-0.553-3.252-1.655-4.298
		s-2.586-1.568-4.449-1.568C568.805,351.346,568.141,351.406,567.604,351.529 M558.158,345.32c-1.156-0.809-2.731-1.213-4.727-1.213
		c-2.435,0-4.531,0.633-6.289,1.898l1.885,2.809c0.801-0.52,1.527-0.884,2.183-1.095c0.655-0.212,1.299-0.316,1.933-0.316
		c1.827,0,2.741,0.729,2.741,2.188c0,0.949-0.345,1.619-1.034,2.011c-0.69,0.391-1.783,0.587-3.277,0.587h-1.489v3.124h1.463
		c1.617,0,2.795,0.188,3.534,0.566c0.738,0.378,1.107,1.021,1.107,1.926c0,1.011-0.321,1.745-0.963,2.201
		c-0.642,0.457-1.635,0.686-2.979,0.686c-0.879,0-1.767-0.119-2.663-0.356c-0.896-0.236-1.719-0.545-2.465-0.923v3.468
		c1.617,0.694,3.471,1.041,5.562,1.041c2.496,0,4.418-0.516,5.762-1.549c1.345-1.033,2.018-2.476,2.018-4.331
		c0-1.273-0.4-2.287-1.2-3.039c-0.8-0.751-1.978-1.223-3.532-1.417v-0.079c1.317-0.315,2.342-0.896,3.07-1.739
		c0.73-0.845,1.096-1.868,1.096-3.072C559.893,347.254,559.314,346.129,558.158,345.32"/>
</g>
<g>
	<path fill="#F79B1C" d="M238,433c13.807,0,25-11.193,25-25s-11.193-25-25-25s-25,11.193-25,25S224.193,433,238,433"/>
	<path fill="#1D1D1B" d="M243.321,413.585c-0.55-0.721-0.824-1.604-0.824-2.649c0-0.712,0.292-1.336,0.876-1.872
		c0.585-0.536,1.29-0.806,2.116-0.806c0.879,0,1.536,0.271,1.971,0.812c0.435,0.541,0.653,1.281,0.653,2.222
		c0,1.081-0.233,1.914-0.699,2.498c-0.466,0.585-1.134,0.877-2.004,0.877C244.566,414.666,243.87,414.306,243.321,413.585
		 M239.313,414.046c0.575,1.267,1.393,2.229,2.452,2.888s2.3,0.988,3.724,0.988c2.057,0,3.665-0.6,4.825-1.8
		c1.161-1.199,1.741-2.827,1.741-4.884c0-1.907-0.488-3.401-1.464-4.482c-0.975-1.082-2.324-1.621-4.047-1.621
		c-1.916,0-3.309,0.746-4.179,2.24h-0.172c0.08-1.52,0.339-2.693,0.778-3.52c0.44-0.826,1.101-1.45,1.984-1.872
		c0.884-0.422,2.024-0.633,3.422-0.633c0.764,0,1.537,0.088,2.32,0.264v-3.256c-0.624-0.132-1.486-0.198-2.584-0.198
		c-3.217,0-5.632,0.933-7.245,2.795c-1.612,1.863-2.419,4.702-2.419,8.517C238.449,411.256,238.737,412.78,239.313,414.046
		 M234.158,399.32c-1.156-0.809-2.731-1.213-4.726-1.213c-2.435,0-4.531,0.633-6.289,1.898l1.885,2.809
		c0.8-0.52,1.527-0.884,2.182-1.095c0.655-0.212,1.299-0.316,1.932-0.316c1.828,0,2.742,0.729,2.742,2.188
		c0,0.95-0.345,1.62-1.035,2.012c-0.69,0.391-1.782,0.587-3.276,0.587h-1.49v3.124h1.463c1.617,0,2.795,0.188,3.534,0.566
		c0.738,0.378,1.107,1.021,1.107,1.926c0,1.011-0.321,1.745-0.962,2.201c-0.642,0.457-1.635,0.686-2.98,0.686
		c-0.879,0-1.766-0.119-2.663-0.356c-0.896-0.236-1.718-0.545-2.465-0.923v3.468c1.617,0.694,3.471,1.041,5.563,1.041
		c2.496,0,4.417-0.516,5.761-1.549c1.345-1.033,2.018-2.476,2.018-4.331c0-1.273-0.401-2.287-1.2-3.039
		c-0.8-0.751-1.978-1.223-3.533-1.417v-0.079c1.318-0.315,2.342-0.896,3.071-1.739c0.73-0.845,1.095-1.868,1.095-3.072
		C235.892,401.254,235.314,400.129,234.158,399.32"/>
</g>
<g>
	<path fill="#F79B1C" d="M292,433c13.807,0,25-11.193,25-25s-11.193-25-25-25s-25,11.193-25,25S278.193,433,292,433"/>
	<path fill="#1D1D1B" d="M298.764,417.658l7.291-16.689v-2.559h-13.83v3.428h9.506l-7.238,15.82H298.764z M288.158,399.32
		c-1.156-0.809-2.731-1.213-4.726-1.213c-2.435,0-4.531,0.633-6.289,1.898l1.885,2.809c0.8-0.52,1.527-0.884,2.182-1.095
		c0.655-0.212,1.299-0.316,1.932-0.316c1.828,0,2.742,0.729,2.742,2.188c0,0.95-0.345,1.62-1.035,2.012
		c-0.69,0.391-1.782,0.587-3.276,0.587h-1.49v3.124h1.463c1.617,0,2.795,0.188,3.534,0.566c0.738,0.378,1.107,1.021,1.107,1.926
		c0,1.011-0.321,1.745-0.962,2.201c-0.642,0.457-1.635,0.686-2.98,0.686c-0.879,0-1.766-0.119-2.663-0.356
		c-0.896-0.236-1.718-0.545-2.465-0.923v3.468c1.617,0.694,3.471,1.041,5.563,1.041c2.496,0,4.417-0.516,5.761-1.549
		c1.345-1.033,2.018-2.476,2.018-4.331c0-1.273-0.401-2.287-1.2-3.039c-0.8-0.751-1.978-1.223-3.533-1.417v-0.079
		c1.318-0.315,2.342-0.896,3.071-1.739c0.73-0.845,1.095-1.868,1.095-3.072C289.892,401.254,289.314,400.129,288.158,399.32"/>
</g>
<g>
	<path fill="#F79B1C" d="M346,433c13.807,0,25-11.193,25-25s-11.193-25-25-25s-25,11.193-25,25S332.193,433,346,433"/>
	<path fill="#1D1D1B" d="M354.887,401.641c0.439,0.352,0.659,0.831,0.659,1.437c0,0.554-0.171,1.042-0.514,1.464
		c-0.343,0.422-0.945,0.835-1.806,1.239c-0.888-0.439-1.501-0.868-1.839-1.285c-0.339-0.418-0.508-0.89-0.508-1.418
		c0-0.597,0.213-1.074,0.639-1.43c0.427-0.356,0.987-0.534,1.681-0.534C353.885,401.113,354.447,401.289,354.887,401.641
		 M353.028,409.261c1.116,0.58,1.922,1.128,2.419,1.642c0.497,0.514,0.745,1.066,0.745,1.654c0,0.712-0.251,1.286-0.752,1.721
		s-1.257,0.652-2.267,0.652c-0.914,0-1.635-0.211-2.162-0.633c-0.528-0.422-0.791-1.011-0.791-1.767
		C350.22,411.212,351.156,410.122,353.028,409.261 M348.756,399.412c-1.142,0.854-1.713,1.969-1.713,3.35
		c0,0.939,0.241,1.806,0.725,2.597c0.483,0.791,1.274,1.534,2.373,2.228c-1.292,0.651-2.231,1.402-2.815,2.255
		c-0.585,0.853-0.877,1.828-0.877,2.927c0,1.644,0.602,2.914,1.806,3.81c1.204,0.897,2.861,1.345,4.971,1.345
		c2.021,0,3.651-0.48,4.891-1.443c1.239-0.962,1.859-2.234,1.859-3.816c0-1.002-0.315-1.923-0.943-2.762
		c-0.628-0.839-1.663-1.646-3.105-2.419c1.213-0.607,2.092-1.294,2.637-2.064c0.545-0.769,0.817-1.645,0.817-2.63
		c0-1.424-0.564-2.555-1.694-3.394c-1.129-0.84-2.617-1.261-4.462-1.261C351.389,398.133,349.899,398.561,348.756,399.412
		 M342.158,399.32c-1.156-0.809-2.731-1.213-4.726-1.213c-2.435,0-4.531,0.633-6.289,1.898l1.885,2.809
		c0.8-0.52,1.527-0.884,2.182-1.095c0.655-0.212,1.299-0.316,1.932-0.316c1.828,0,2.742,0.729,2.742,2.188
		c0,0.95-0.345,1.62-1.035,2.012c-0.69,0.391-1.782,0.587-3.276,0.587h-1.49v3.124h1.463c1.617,0,2.795,0.188,3.534,0.566
		c0.738,0.378,1.107,1.021,1.107,1.926c0,1.011-0.321,1.745-0.962,2.201c-0.642,0.457-1.635,0.686-2.98,0.686
		c-0.879,0-1.766-0.119-2.663-0.356c-0.896-0.236-1.718-0.545-2.465-0.923v3.468c1.617,0.694,3.471,1.041,5.563,1.041
		c2.496,0,4.417-0.516,5.761-1.549c1.345-1.033,2.018-2.476,2.018-4.331c0-1.273-0.401-2.287-1.2-3.039
		c-0.8-0.751-1.978-1.223-3.533-1.417v-0.079c1.318-0.315,2.342-0.896,3.071-1.739c0.73-0.845,1.095-1.868,1.095-3.072
		C343.892,401.254,343.314,400.129,342.158,399.32"/>
</g>
<g>
	<path fill="#F79B1C" d="M400,433c13.807,0,25-11.193,25-25s-11.193-25-25-25c-13.807,0-25,11.193-25,25S386.193,433,400,433"/>
	<path fill="#1D1D1B" d="M409.104,402.511c0.549,0.721,0.824,1.604,0.824,2.649c0,0.704-0.294,1.325-0.883,1.866
		c-0.589,0.54-1.297,0.811-2.123,0.811c-0.879,0-1.533-0.272-1.964-0.817s-0.646-1.283-0.646-2.215c0-1.09,0.236-1.925,0.711-2.506
		c0.476-0.579,1.135-0.869,1.979-0.869C407.854,401.43,408.555,401.79,409.104,402.511 M413.119,402.069
		c-0.572-1.271-1.391-2.239-2.459-2.907s-2.314-1.002-3.738-1.002c-2.021,0-3.617,0.601-4.792,1.799
		c-1.173,1.2-1.76,2.833-1.76,4.898c0,1.916,0.483,3.413,1.45,4.489c0.967,1.076,2.289,1.614,3.969,1.614
		c1.002,0,1.836-0.167,2.504-0.501s1.257-0.914,1.768-1.739h0.157c-0.069,1.503-0.338,2.683-0.804,3.54
		c-0.466,0.856-1.139,1.484-2.018,1.885c-0.879,0.399-2,0.6-3.361,0.6c-0.809,0-1.582-0.092-2.32-0.276v3.269
		c0.59,0.123,1.454,0.185,2.598,0.185c3.242,0,5.664-0.936,7.264-2.808s2.4-4.707,2.4-8.503
		C413.977,404.854,413.689,403.339,413.119,402.069 M396.158,399.32c-1.156-0.809-2.731-1.213-4.726-1.213
		c-2.435,0-4.531,0.633-6.289,1.898l1.885,2.809c0.8-0.52,1.527-0.884,2.182-1.095c0.655-0.212,1.299-0.316,1.932-0.316
		c1.828,0,2.742,0.729,2.742,2.188c0,0.95-0.345,1.62-1.035,2.012c-0.69,0.391-1.782,0.587-3.276,0.587h-1.49v3.124h1.463
		c1.617,0,2.795,0.188,3.534,0.566c0.738,0.378,1.107,1.021,1.107,1.926c0,1.011-0.321,1.745-0.962,2.201
		c-0.642,0.457-1.635,0.686-2.98,0.686c-0.879,0-1.766-0.119-2.663-0.356c-0.896-0.236-1.718-0.545-2.465-0.923v3.468
		c1.617,0.694,3.471,1.041,5.563,1.041c2.496,0,4.417-0.516,5.761-1.549c1.345-1.033,2.018-2.476,2.018-4.331
		c0-1.273-0.401-2.287-1.2-3.039c-0.8-0.751-1.978-1.223-3.533-1.417v-0.079c1.318-0.315,2.342-0.896,3.071-1.739
		c0.73-0.845,1.095-1.868,1.095-3.072C397.892,401.254,397.314,400.129,396.158,399.32"/>
</g>
<g>
	<path fill="#F79B1C" d="M454,433c13.807,0,25-11.193,25-25s-11.193-25-25-25s-25,11.193-25,25S440.193,433,454,433"/>
	<path fill="#1D1D1B" d="M459.143,402.926c0.412-1.033,1.099-1.549,2.057-1.549c0.939,0,1.624,0.516,2.05,1.549
		c0.427,1.033,0.64,2.731,0.64,5.096c0,2.339-0.211,4.025-0.633,5.062s-1.107,1.556-2.057,1.556c-0.967,0-1.654-0.512-2.062-1.536
		c-0.41-1.023-0.613-2.718-0.613-5.082S458.729,403.959,459.143,402.926 M466.242,400.612c-1.139-1.688-2.819-2.531-5.043-2.531
		c-2.285,0-3.977,0.807-5.076,2.419c-1.098,1.613-1.648,4.12-1.648,7.521c0,3.261,0.565,5.727,1.695,7.396
		c1.129,1.67,2.805,2.505,5.029,2.505c2.294,0,3.992-0.808,5.096-2.425c1.102-1.617,1.654-4.109,1.654-7.476
		C467.949,404.77,467.38,402.3,466.242,400.612 M442.137,410.5l3.532-5.339c0.457-0.687,0.849-1.389,1.173-2.11h0.106
		c-0.027,0.167-0.062,0.77-0.106,1.807c-0.044,1.037-0.066,1.828-0.066,2.373v3.27H442.137z M453.078,410.5h-2.32v-12.116H447
		l-8.449,12.446v2.834h8.225v3.995h3.982v-3.995h2.32V410.5z"/>
</g>
<g>
	<path fill="#F79B1C" d="M508,433c13.807,0,25-11.193,25-25s-11.193-25-25-25s-25,11.193-25,25S494.193,433,508,433"/>
	<path fill="#1D1D1B" d="M518.653,398.384h-3.349l-6.209,4.944l1.963,2.452l2.215-1.78c0.265-0.21,0.734-0.654,1.412-1.331
		l-0.066,2.004l-0.04,1.832v11.154h4.074V398.384z M496.137,410.5l3.532-5.339c0.457-0.687,0.849-1.389,1.173-2.11h0.106
		c-0.027,0.167-0.062,0.77-0.106,1.807c-0.044,1.037-0.066,1.828-0.066,2.373v3.27H496.137z M507.078,410.5h-2.32v-12.116H501
		l-8.449,12.446v2.834h8.225v3.995h3.982v-3.995h2.32V410.5z"/>
</g>
<g>
	<path fill="#F79B1C" d="M562,433c13.807,0,25-11.193,25-25s-11.193-25-25-25s-25,11.193-25,25S548.193,433,562,433"/>
	<path fill="#1D1D1B" d="M576.055,414.231h-8.397v-0.186l2.478-2.333c1.652-1.512,2.807-2.676,3.461-3.494
		c0.654-0.816,1.139-1.615,1.45-2.393s0.468-1.61,0.468-2.498c0-1.02-0.254-1.925-0.765-2.716c-0.509-0.791-1.226-1.406-2.149-1.846
		c-0.922-0.439-1.985-0.659-3.189-0.659c-0.914,0-1.74,0.091-2.479,0.271s-1.42,0.438-2.043,0.771
		c-0.625,0.334-1.412,0.904-2.36,1.714l2.215,2.623c0.765-0.633,1.498-1.12,2.202-1.463c0.703-0.344,1.428-0.515,2.175-0.515
		c0.712,0,1.28,0.189,1.707,0.567c0.426,0.378,0.64,0.953,0.64,1.727c0,0.519-0.097,1.02-0.289,1.503
		c-0.195,0.483-0.511,1.009-0.951,1.575c-0.438,0.567-1.375,1.584-2.808,3.052l-4.838,4.892v2.835h13.474V414.231z M550.137,410.5
		l3.532-5.339c0.457-0.687,0.849-1.389,1.173-2.11h0.106c-0.027,0.167-0.062,0.77-0.106,1.807c-0.044,1.037-0.066,1.828-0.066,2.373
		v3.27H550.137z M561.078,410.5h-2.32v-12.116H555l-8.449,12.446v2.834h8.225v3.995h3.982v-3.995h2.32V410.5z"/>
</g>
<g>
	<path fill="#C64E9C" d="M238,487c13.807,0,25-11.193,25-25s-11.193-25-25-25s-25,11.193-25,25S224.193,487,238,487"/>
	<path fill="#FFFFFF" d="M249.569,453.32c-1.155-0.809-2.731-1.213-4.726-1.213c-2.434,0-4.531,0.633-6.288,1.898l1.885,2.809
		c0.799-0.52,1.527-0.884,2.182-1.095c0.654-0.211,1.298-0.316,1.931-0.316c1.828,0,2.742,0.729,2.742,2.188
		c0,0.949-0.345,1.619-1.035,2.01c-0.69,0.392-1.782,0.588-3.276,0.588h-1.489v3.124h1.463c1.617,0,2.795,0.189,3.533,0.566
		c0.738,0.378,1.108,1.021,1.108,1.925c0,1.012-0.321,1.745-0.963,2.202s-1.635,0.686-2.979,0.686c-0.879,0-1.767-0.118-2.663-0.356
		c-0.897-0.237-1.719-0.544-2.466-0.922v3.467c1.617,0.694,3.472,1.041,5.564,1.041c2.496,0,4.416-0.516,5.761-1.549
		c1.345-1.032,2.017-2.476,2.017-4.331c0-1.274-0.4-2.287-1.2-3.038c-0.8-0.752-1.977-1.224-3.533-1.418v-0.079
		c1.318-0.315,2.342-0.896,3.072-1.74c0.729-0.844,1.094-1.866,1.094-3.071C251.303,455.254,250.725,454.129,249.569,453.32
		 M226.136,464.5l3.533-5.339c0.457-0.687,0.848-1.389,1.173-2.11h0.106c-0.027,0.167-0.062,0.77-0.106,1.807
		s-0.066,1.828-0.066,2.373v3.27H226.136z M237.078,464.5h-2.32v-12.116H231l-8.45,12.446v2.834h8.226v3.995h3.982v-3.995h2.32
		V464.5z"/>
</g>
<g>
	<path fill="#C64E9C" d="M292,487c13.807,0,25-11.193,25-25s-11.193-25-25-25s-25,11.193-25,25S278.193,487,292,487"/>
	<path fill="#FFFFFF" d="M295.547,464.5l3.533-5.339c0.457-0.687,0.849-1.389,1.174-2.11h0.105c-0.026,0.167-0.061,0.77-0.105,1.807
		s-0.066,1.828-0.066,2.373v3.27H295.547z M306.49,464.5h-2.321v-12.116h-3.757l-8.451,12.446v2.834h8.227v3.995h3.981v-3.995h2.321
		V464.5z M280.136,464.5l3.533-5.339c0.457-0.687,0.848-1.389,1.173-2.11h0.106c-0.027,0.167-0.062,0.77-0.106,1.807
		c-0.044,1.037-0.066,1.828-0.066,2.373v3.27H280.136z M291.078,464.5h-2.32v-12.116H285l-8.45,12.446v2.834h8.226v3.995h3.982
		v-3.995h2.32V464.5z"/>
</g>
<g>
	<path fill="#C64E9C" d="M346,487c13.807,0,25-11.193,25-25s-11.193-25-25-25s-25,11.193-25,25S332.193,487,346,487"/>
	<path fill="#FFFFFF" d="M351.604,459.53l-0.462,0.092l0.356-3.784h6.882v-3.454h-10.454l-0.725,9.822l1.621,0.87
		c0.352-0.105,0.809-0.204,1.371-0.296c0.563-0.094,1.077-0.14,1.543-0.14c2.575,0,3.863,0.972,3.863,2.914
		c0,2.039-1.244,3.059-3.731,3.059c-0.827,0-1.701-0.116-2.624-0.35c-0.923-0.232-1.732-0.533-2.426-0.902v3.52
		c1.319,0.694,3.05,1.041,5.195,1.041c2.469,0,4.368-0.58,5.695-1.74c1.327-1.159,1.991-2.816,1.991-4.97
		c0-1.819-0.552-3.252-1.655-4.298s-2.586-1.569-4.449-1.569C352.804,459.345,352.14,459.407,351.604,459.53 M334.136,464.5
		l3.533-5.339c0.457-0.687,0.848-1.389,1.173-2.11h0.106c-0.027,0.167-0.062,0.77-0.106,1.807c-0.044,1.037-0.066,1.828-0.066,2.373
		v3.27H334.136z M345.078,464.5h-2.32v-12.116H339l-8.45,12.446v2.834h8.226v3.995h3.982v-3.995h2.32V464.5z"/>
</g>
<g>
	<path fill="#C64E9C" d="M400,487c13.807,0,25-11.193,25-25s-11.193-25-25-25c-13.807,0-25,11.193-25,25S386.193,487,400,487"/>
	<path fill="#FFFFFF" d="M405.32,467.585c-0.549-0.721-0.824-1.604-0.824-2.65c0-0.712,0.293-1.336,0.877-1.871
		c0.585-0.536,1.29-0.805,2.116-0.805c0.879,0,1.536,0.271,1.971,0.812c0.435,0.54,0.653,1.28,0.653,2.221
		c0,1.081-0.233,1.914-0.699,2.498c-0.466,0.585-1.134,0.877-2.004,0.877C406.566,468.666,405.87,468.306,405.32,467.585
		 M401.312,468.046c0.576,1.266,1.394,2.229,2.453,2.888c1.059,0.659,2.299,0.988,3.724,0.988c2.057,0,3.665-0.599,4.825-1.799
		s1.74-2.828,1.74-4.885c0-1.907-0.488-3.401-1.463-4.482c-0.976-1.081-2.326-1.622-4.048-1.622c-1.916,0-3.31,0.747-4.179,2.241
		h-0.172c0.078-1.52,0.338-2.693,0.777-3.52s1.102-1.45,1.984-1.872s2.023-0.633,3.421-0.633c0.765,0,1.538,0.089,2.321,0.264
		v-3.256c-0.625-0.133-1.486-0.198-2.584-0.198c-3.217,0-5.633,0.932-7.245,2.795c-1.613,1.863-2.419,4.702-2.419,8.517
		C400.449,465.256,400.737,466.781,401.312,468.046 M388.136,464.5l3.533-5.339c0.457-0.687,0.848-1.389,1.173-2.11h0.106
		c-0.027,0.167-0.062,0.77-0.106,1.807c-0.044,1.037-0.066,1.828-0.066,2.373v3.27H388.136z M399.078,464.5h-2.32v-12.116H393
		l-8.45,12.446v2.834h8.226v3.995h3.982v-3.995h2.32V464.5z"/>
</g>
<g>
	<path fill="#C64E9C" d="M454,487c13.807,0,25-11.193,25-25s-11.193-25-25-25s-25,11.193-25,25S440.193,487,454,487"/>
	<path fill="#FFFFFF" d="M460.764,471.659l7.291-16.691v-2.557h-13.83v3.427h9.506l-7.237,15.821H460.764z M442.137,464.5
		l3.532-5.339c0.457-0.687,0.849-1.389,1.173-2.11h0.106c-0.027,0.167-0.062,0.77-0.106,1.807c-0.044,1.037-0.066,1.828-0.066,2.373
		v3.27H442.137z M453.078,464.5h-2.32v-12.116H447l-8.449,12.446v2.834h8.225v3.995h3.982v-3.995h2.32V464.5z"/>
</g>
<g>
	<path fill="#C64E9C" d="M508,487c13.807,0,25-11.193,25-25s-11.193-25-25-25s-25,11.193-25,25S494.193,487,508,487"/>
	<path fill="#FFFFFF" d="M516.887,455.641c0.439,0.352,0.659,0.83,0.659,1.438c0,0.553-0.172,1.041-0.514,1.463
		c-0.343,0.422-0.945,0.835-1.808,1.239c-0.887-0.439-1.5-0.868-1.838-1.285c-0.339-0.417-0.508-0.89-0.508-1.417
		c0-0.598,0.213-1.075,0.639-1.431c0.427-0.356,0.987-0.534,1.682-0.534C515.885,455.113,516.447,455.289,516.887,455.641
		 M515.028,463.261c1.116,0.58,1.922,1.127,2.419,1.642c0.496,0.514,0.744,1.065,0.744,1.654c0,0.712-0.25,1.285-0.752,1.721
		c-0.5,0.435-1.256,0.652-2.267,0.652c-0.913,0-1.635-0.211-2.161-0.633c-0.529-0.422-0.791-1.011-0.791-1.767
		C512.221,465.212,513.156,464.122,515.028,463.261 M510.756,453.413c-1.142,0.852-1.714,1.968-1.714,3.348
		c0,0.941,0.242,1.807,0.726,2.598s1.274,1.533,2.373,2.228c-1.291,0.651-2.23,1.402-2.814,2.255
		c-0.585,0.853-0.877,1.828-0.877,2.927c0,1.644,0.602,2.913,1.806,3.811c1.204,0.896,2.861,1.344,4.97,1.344
		c2.022,0,3.652-0.48,4.893-1.443c1.238-0.963,1.857-2.234,1.857-3.816c0-1.002-0.313-1.922-0.941-2.762
		c-0.629-0.84-1.664-1.646-3.105-2.419c1.213-0.606,2.092-1.295,2.637-2.063s0.817-1.646,0.817-2.63
		c0-1.424-0.565-2.556-1.694-3.396c-1.129-0.839-2.616-1.259-4.463-1.259C513.389,452.134,511.898,452.56,510.756,453.413
		 M496.137,464.5l3.532-5.339c0.457-0.687,0.849-1.389,1.173-2.11h0.106c-0.027,0.167-0.062,0.77-0.106,1.807
		c-0.044,1.037-0.066,1.828-0.066,2.373v3.27H496.137z M507.078,464.5h-2.32v-12.116H501l-8.449,12.446v2.834h8.225v3.995h3.982
		v-3.995h2.32V464.5z"/>
</g>
<g>
	<path fill="#C64E9C" d="M562,487c13.807,0,25-11.193,25-25s-11.193-25-25-25s-25,11.193-25,25S548.193,487,562,487"/>
	<path fill="#FFFFFF" d="M571.104,456.511c0.55,0.722,0.824,1.604,0.824,2.65c0,0.703-0.293,1.325-0.883,1.865
		c-0.589,0.541-1.297,0.811-2.123,0.811c-0.879,0-1.533-0.271-1.964-0.817c-0.431-0.545-0.646-1.283-0.646-2.215
		c0-1.09,0.236-1.925,0.711-2.505s1.135-0.87,1.978-0.87C569.854,455.43,570.555,455.79,571.104,456.511 M575.119,456.069
		c-0.572-1.271-1.391-2.239-2.459-2.907s-2.314-1.002-3.738-1.002c-2.021,0-3.619,0.6-4.792,1.8c-1.173,1.199-1.76,2.832-1.76,4.897
		c0,1.917,0.483,3.412,1.45,4.488c0.967,1.077,2.289,1.615,3.968,1.615c1.002,0,1.837-0.166,2.505-0.501
		c0.668-0.333,1.258-0.914,1.768-1.74h0.158c-0.07,1.503-0.339,2.684-0.805,3.54c-0.466,0.857-1.139,1.485-2.018,1.885
		c-0.879,0.4-2,0.601-3.361,0.601c-0.809,0-1.582-0.092-2.32-0.277v3.271c0.588,0.123,1.454,0.184,2.598,0.184
		c3.242,0,5.664-0.936,7.264-2.808s2.398-4.706,2.398-8.503C575.975,458.853,575.689,457.339,575.119,456.069 M550.137,464.5
		l3.532-5.339c0.457-0.687,0.849-1.389,1.173-2.11h0.106c-0.027,0.167-0.062,0.77-0.106,1.807c-0.044,1.037-0.066,1.828-0.066,2.373
		v3.27H550.137z M561.078,464.5h-2.32v-12.116H555l-8.449,12.446v2.834h8.225v3.995h3.982v-3.995h2.32V464.5z"/>
</g>
</svg>
